<?xml version="1.0" standalone="no"?><svg xmlns="http://www.w3.org/2000/svg" viewBox="0 0 1440 320"><path fill="#0099ff" fill-opacity="1" d="M0,96L30,117.3C60,139,120,181,180,213.3C240,245,300,267,360,240C420,213,480,139,540,122.7C600,107,660,149,720,170.7C780,192,840,192,900,176C960,160,1020,128,1080,112C1140,96,1200,96,1260,128C1320,160,1380,224,1410,256L1440,288L1440,320L1410,320C1380,320,1320,320,1260,320C1200,320,1140,320,1080,320C1020,320,960,320,900,320C840,320,780,320,720,320C660,320,600,320,540,320C480,320,420,320,360,320C300,320,240,320,180,320C120,320,60,320,30,320L0,320Z"></path></svg>