<?xml version="1.0" encoding="UTF-8"?>
<svg width="199px" height="59px" viewBox="0 0 199 59" version="1.1" xmlns="http://www.w3.org/2000/svg" xmlns:xlink="http://www.w3.org/1999/xlink">
    <title>App Store Badge US Black</title>
    <g id="Page-1" stroke="none" stroke-width="1" fill="none" fill-rule="evenodd">
        <g id="Artboard" transform="translate(-171.000000, -604.000000)">
            <g id="App-Store-Badge-US-Black" transform="translate(171.000000, 604.000000)">
                <path d="M72.5406828,38.6476214 L65.6039631,38.6476214 L63.9381186,43.5898467 L61,43.5898467 L67.5703489,25.3048868 L70.6229511,25.3048868 L77.1932999,43.5898467 L74.2050764,43.5898467 L72.5406828,38.6476214 Z M66.3223871,36.3670372 L71.8208813,36.3670372 L69.1103083,28.3461712 L69.0344549,28.3461712 L66.3223871,36.3670372 Z M91.3830201,36.9249656 C91.3830201,41.0676914 89.1762071,43.7293178 85.8459544,43.7293178 C84.1245758,43.8197923 82.5031313,42.9138873 81.671334,41.3969473 L81.6083182,41.3969473 L81.6083182,48 L78.8848636,48 L78.8848636,30.2586414 L81.5210633,30.2586414 L81.5210633,32.4759542 L81.5711536,32.4759542 C82.4399044,30.9685241 84.0630973,30.0630092 85.7958641,30.1191556 C89.1632669,30.1191704 91.3830201,32.7937396 91.3830201,36.9249656 Z M88.5837121,36.9249656 C88.5837121,34.2259535 87.1955035,32.4515114 85.0774255,32.4515114 C82.9965561,32.4515114 81.5969021,34.2633244 81.5969021,36.9249656 C81.5969021,39.6110494 82.9965561,41.4099196 85.0774255,41.4099196 C87.1955182,41.4099196 88.5837121,39.6484351 88.5837121,36.9249656 Z M105.986329,36.9249656 C105.986329,41.0676914 103.779516,43.7293178 100.449263,43.7293178 C98.7278847,43.8197923 97.1064403,42.9138873 96.2746429,41.3969473 L96.2116271,41.3969473 L96.2116271,48 L93.4881725,48 L93.4881725,30.2586414 L96.1243136,30.2586414 L96.1243136,32.4759542 L96.1744039,32.4759542 C97.043161,30.9685251 98.6663602,30.0630154 100.399129,30.1191704 C103.766634,30.1191704 105.986329,32.7937396 105.986329,36.9249656 Z M103.187036,36.9249656 C103.187036,34.2259535 101.798812,32.4515114 99.6807344,32.4515114 C97.599865,32.4515114 96.200211,34.2633244 96.200211,36.9249656 C96.200211,39.6110494 97.599865,41.4099196 99.6807344,41.4099196 C101.798827,41.4099196 103.187036,39.6484351 103.187036,36.9249656 L103.187036,36.9249656 Z M115.637916,38.4951928 C115.839713,40.3084488 117.592871,41.4990032 119.98857,41.4990032 C122.284118,41.4990032 123.935645,40.3083899 123.935645,38.6734336 C123.935645,37.2541773 122.93957,36.4043787 120.581065,35.8219929 L118.22256,35.2511216 C114.880862,34.4401223 113.329501,32.8698803 113.329501,30.3218392 C113.329501,27.1669842 116.065837,25 119.951361,25 C123.79679,25 126.432975,27.1669842 126.52171,30.3218392 L123.772463,30.3218392 C123.607889,28.4970833 122.106619,27.3956272 119.912687,27.3956272 C117.718756,27.3956272 116.2175,28.5100409 116.2175,30.1320396 C116.2175,31.424753 117.176366,32.1854238 119.521989,32.7677361 L121.527005,33.262393 C125.260837,34.1496067 126.812198,35.6566066 126.812198,38.3311464 C126.812198,41.7520153 124.100189,43.8945568 119.786744,43.8945568 C115.750934,43.8945568 113.026058,41.8023439 112.850024,38.4950602 L115.637916,38.4951928 Z M132.689901,27.1037864 L132.689901,30.2586414 L135.212995,30.2586414 L135.212995,32.4256256 L132.689901,32.4256256 L132.689901,39.7749633 C132.689901,40.916691 133.195097,41.4487336 134.304219,41.4487336 C134.603751,41.4434857 134.902799,41.422351 135.200113,41.3854179 L135.200113,43.5394593 C134.701451,43.6330774 134.194602,43.6754766 133.687397,43.6660021 C131.001166,43.6660021 129.953565,42.6522456 129.953565,40.0668188 L129.953565,32.4256256 L128.024402,32.4256256 L128.024402,30.2586414 L129.953536,30.2586414 L129.953536,27.1037864 L132.689901,27.1037864 Z M136.674243,36.9249656 C136.674243,32.7304829 139.132929,30.0947276 142.966956,30.0947276 C146.81385,30.0947276 149.261091,32.730424 149.261091,36.9249656 C149.261091,41.1309628 146.826732,43.7552035 142.966956,43.7552035 C139.108543,43.7552035 136.674243,41.1309481 136.674243,36.9249656 Z M146.48611,36.9249656 C146.48611,34.0476391 145.173754,32.349426 142.966941,32.349426 C140.760128,32.349426 139.449209,34.060582 139.449209,36.9249656 C139.449209,39.8137919 140.760128,41.4990768 142.966941,41.4990768 C145.173754,41.4990768 146.48611,39.8137919 146.48611,36.9249656 L146.48611,36.9249656 Z M151.506475,30.2586414 L154.104001,30.2586414 L154.104001,32.5276963 L154.167016,32.5276963 C154.529249,31.0670027 155.86131,30.0617027 157.358444,30.1191409 C157.672298,30.1180398 157.985286,30.152287 158.291547,30.221241 L158.291547,32.780782 C157.895325,32.6591326 157.481998,32.6032793 157.067868,32.6154252 C156.267198,32.5827889 155.492328,32.9034004 154.946714,33.4930767 C154.401101,34.0827531 154.139255,34.8825817 154.22993,35.6825513 L154.22993,43.5898173 L151.506475,43.5898173 L151.506475,30.2586414 Z M170.848293,39.6743062 C170.481922,42.0943614 168.136284,43.7551888 165.135194,43.7551888 C161.275418,43.7551888 158.879704,41.1568191 158.879704,36.9882223 C158.879704,32.8066825 161.288299,30.0947129 165.02071,30.0947129 C168.69157,30.0947129 171,32.6283681 171,36.6704368 L171,37.607979 L161.628922,37.607979 L161.628922,37.7733359 C161.541428,38.7658178 161.882511,39.7482374 162.565409,40.4706987 C163.248308,41.19316 164.207202,41.5860302 165.19818,41.5493759 C166.519815,41.6737979 167.765858,40.9112689 168.262242,39.6742914 L170.848293,39.6743062 Z M161.641777,35.6955236 L168.275109,35.6955236 C168.324533,34.8036974 168.00144,33.9315994 167.38367,33.2893265 C166.765901,32.6470536 165.909468,32.2928401 165.02071,32.3120256 C164.124921,32.3066544 163.264109,32.661034 162.629606,33.2963967 C161.995102,33.9317595 161.639482,34.7954597 161.641777,35.6955236 L161.641777,35.6955236 Z" id="App-Store" fill="#FFFFFF" fill-rule="nonzero"></path>
                <path d="M66.1794142,11.4161418 C67.3432534,11.3360051 68.4832083,11.7608707 69.2855137,12.5737973 C70.0878192,13.3867238 70.4679079,14.5020244 70.3211629,15.6127201 C70.3211629,18.3109187 68.8013278,19.8618963 66.1794142,19.8618963 L63,19.8618963 L63,11.4161418 L66.1794142,11.4161418 Z M64.3671243,18.6674843 L66.0267034,18.6674843 C66.858443,18.7151878 67.6683096,18.4007558 68.2314335,17.8114944 C68.7945574,17.222233 69.0509869,16.4208766 68.929521,15.6299319 C69.0421497,14.8422696 68.7820274,14.047526 68.2202997,13.46307 C67.658572,12.878614 66.854023,12.5656081 66.0267034,12.6096621 L64.3671243,12.6096621 L64.3671243,18.6674843 Z M71.865486,16.6721832 C71.751583,15.5297536 72.3225026,14.4241283 73.3388027,13.8190034 C74.3551027,13.2138786 75.6410679,13.2138786 76.6573679,13.8190034 C77.673668,14.4241283 78.2445876,15.5297536 78.1306846,16.6721832 C78.2467547,17.8158405 77.6763562,18.9236103 76.6591551,19.5300378 C75.6419539,20.1364653 74.3542167,20.1364653 73.3370155,19.5300378 C72.3198144,18.9236103 71.7494159,17.8158405 71.865486,16.6721832 Z M76.7822803,16.6721832 C76.7822803,15.2906065 76.135428,14.4826685 75.0002464,14.4826685 C73.8607278,14.4826685 73.2197025,15.2906065 73.2197025,16.6721974 C73.2197025,18.064843 73.8607721,18.866553 75.0002464,18.866553 C76.1354575,18.866553 76.7822803,18.0592944 76.7822803,16.6721832 L76.7822803,16.6721832 Z M86.4588358,19.861769 L85.0989103,19.861769 L83.726018,15.1675615 L83.622298,15.1675615 L82.2551589,19.861769 L80.9081856,19.861769 L79.0771757,13.4881036 L80.4068599,13.4881036 L81.5968002,18.3515845 L81.694767,18.3515845 L83.0604605,13.4881036 L84.3181116,13.4881036 L85.683805,18.3515845 L85.787525,18.3515845 L86.9716973,13.4881036 L88.2826468,13.4881036 L86.4588358,19.861769 Z M89.8226476,13.4881036 L91.084621,13.4881036 L91.084621,14.5006164 L91.1825878,14.5006164 C91.5232586,13.7551392 92.3193078,13.2991235 93.1648628,13.3650728 C93.8195731,13.3178418 94.4611428,13.5588334 94.9084251,14.0200038 C95.3557073,14.4811741 95.5601636,15.1124776 95.4640657,15.7356659 L95.4640657,19.8616982 L94.1531163,19.8616982 L94.1531163,16.0515374 C94.1531163,15.0272764 93.6892455,14.517899 92.7197121,14.517899 C92.2756321,14.4980532 91.8446642,14.6652791 91.539795,14.9757354 C91.2349258,15.2861917 91.0865609,15.7089154 91.1335971,16.1330814 L91.1335971,19.861769 L89.8226476,19.861769 L89.8226476,13.4881036 Z M97.5529521,11 L98.8639015,11 L98.8639015,19.8617548 L97.5529521,19.8617548 L97.5529521,11 Z M100.686267,16.6721832 C100.572451,15.5296789 101.143461,14.4240255 102.159836,13.8188914 C103.176212,13.2137572 104.462243,13.2137572 105.478619,13.8188914 C106.494994,14.4240255 107.066004,15.5296789 106.952188,16.6721832 C107.068111,17.8158814 106.497608,18.9236199 105.480356,19.5300207 C104.463105,20.1364216 103.17535,20.1364216 102.158099,19.5300207 C101.140847,18.9236199 100.570344,17.8158814 100.686267,16.6721832 L100.686267,16.6721832 Z M105.603061,16.6721832 C105.603061,15.2906065 104.956209,14.4826685 103.821027,14.4826685 C102.681509,14.4826685 102.040483,15.2906065 102.040483,16.6721974 C102.040483,18.064843 102.681553,18.866553 103.821027,18.866553 C104.956224,18.866553 105.603061,18.0592944 105.603061,16.6721832 L105.603061,16.6721832 Z M108.332294,18.0592944 C108.332294,16.9120027 109.222596,16.2505919 110.802928,16.156592 L112.602251,16.0570718 L112.602251,15.5069294 C112.602251,14.8337563 112.13838,14.4536376 111.242325,14.4536376 C110.510503,14.4536376 110.003409,14.7114333 109.857897,15.1620554 L108.588725,15.1620554 C108.722701,14.067291 109.795954,13.3651011 111.302823,13.3651011 C112.96817,13.3651011 113.907447,14.1605832 113.907447,15.5069294 L113.907447,19.8617831 L112.645474,19.8617831 L112.645474,18.9660732 L112.541754,18.9660732 C112.113138,19.6201892 111.350919,20.0024833 110.546512,19.9667952 C109.982603,20.023076 109.420198,19.8478419 108.998332,19.4844139 C108.576467,19.1209858 108.334516,18.6032843 108.332294,18.0592944 L108.332294,18.0592944 Z M112.602251,17.5146723 L112.602251,16.9818126 L110.980127,17.0813328 C110.065337,17.1400739 109.650442,17.4386486 109.650442,18.0005392 C109.650442,18.574178 110.169057,18.9079973 110.882219,18.9079973 C111.304395,18.9490027 111.72584,18.8238561 112.050076,18.5612062 C112.374312,18.2985563 112.573576,17.9208934 112.602251,17.5146723 Z M115.6304,16.6721832 C115.6304,14.6582124 116.709421,13.3823696 118.38772,13.3823696 C119.235178,13.3449029 120.0289,13.7806101 120.424739,14.5005739 L120.522706,14.5005739 L120.522706,11 L121.833656,11 L121.833656,19.8617548 L120.57745,19.8617548 L120.57745,18.8547623 L120.47373,18.8547623 C120.04797,19.5687527 119.244468,19.997095 118.387735,19.9667952 C116.6979,19.966866 115.6304,18.6909949 115.6304,16.6721832 Z M116.984616,16.6721832 C116.984616,18.0240498 117.648743,18.8375221 118.759451,18.8375221 C119.864362,18.8375221 120.547238,18.0123157 120.547238,16.6777176 C120.547238,15.3493476 119.857193,14.5123787 118.759451,14.5123787 C117.655898,14.5123787 116.984572,15.3313714 116.984572,16.6721832 L116.984616,16.6721832 Z M127.257544,16.6721832 C127.143641,15.5297536 127.71456,14.4241283 128.73086,13.8190034 C129.74716,13.2138786 131.033125,13.2138786 132.049425,13.8190034 C133.065725,14.4241283 133.636645,15.5297536 133.522742,16.6721832 C133.638812,17.8158405 133.068414,18.9236103 132.051213,19.5300378 C131.034011,20.1364653 129.746274,20.1364653 128.729073,19.5300378 C127.711872,18.9236103 127.141473,17.8158405 127.257544,16.6721832 L127.257544,16.6721832 Z M132.174323,16.6721832 C132.174323,15.2906065 131.527486,14.4826685 130.392304,14.4826685 C129.252785,14.4826685 128.61176,15.2906065 128.61176,16.6721974 C128.61176,18.064843 129.25283,18.866553 130.392304,18.866553 C131.5275,18.866553 132.174323,18.0592944 132.174323,16.6721832 Z M135.281719,13.4881036 L136.543692,13.4881036 L136.543692,14.5006164 L136.641659,14.5006164 C136.98233,13.7551392 137.778379,13.2991235 138.623934,13.3650728 C139.278644,13.3178418 139.920214,13.5588334 140.367496,14.0200038 C140.814779,14.4811741 141.019235,15.1124776 140.923137,15.7356659 L140.923137,19.8616982 L139.612188,19.8616982 L139.612188,16.0515374 C139.612188,15.0272764 139.148317,14.517899 138.178783,14.517899 C137.734703,14.4980532 137.303735,14.6652791 136.998866,14.9757354 C136.693997,15.2861917 136.545632,15.7089154 136.592668,16.1330814 L136.592668,19.861769 L135.281719,19.861769 L135.281719,13.4881036 Z M148.330745,11.9012585 L148.330745,13.5171345 L149.769918,13.5171345 L149.769918,14.5766543 L148.330745,14.5766543 L148.330745,17.8540261 C148.330745,18.5216648 148.617432,18.8140115 149.270023,18.8140115 C149.437095,18.8134985 149.604,18.8038057 149.769918,18.7849807 L149.769918,19.8327381 C149.534493,19.8731502 149.295965,19.8946499 149.056815,19.8970136 C147.598923,19.8970136 147.01835,19.4049188 147.01835,18.1760831 L147.01835,14.5765976 L145.963832,14.5765976 L145.963832,13.5170778 L147.01835,13.5170778 L147.01835,11.9012585 L148.330745,11.9012585 Z M151.560581,11 L152.86001,11 L152.86001,14.5123646 L152.96373,14.5123646 C153.320764,13.7603631 154.130746,13.3037663 154.989154,13.3706072 C155.640146,13.3366185 156.273031,13.5829156 156.715425,14.0424128 C157.157818,14.5019101 157.363642,15.126748 157.276835,15.7467347 L157.276835,19.861769 L155.964573,19.861769 L155.964573,16.0570435 C155.964573,15.0389963 155.470387,14.5234051 154.544136,14.5234051 C154.088052,14.4875145 153.638712,14.6466071 153.316242,14.9581509 C152.993773,15.2696947 152.831055,15.7019221 152.87159,16.139281 L152.87159,19.861769 L151.56064,19.861769 L151.560581,11 Z M164.920768,18.1408384 C164.553163,19.3430913 163.340626,20.1198803 162.042438,19.9847856 C161.156686,20.0072207 160.305429,19.6549446 159.714526,19.0214245 C159.123622,18.3879044 158.852811,17.5371864 158.973943,16.6949861 C158.856028,15.8504453 159.125825,14.9983641 159.713438,14.3594918 C160.301051,13.7206196 161.148658,13.3578211 162.03667,13.365087 C163.884969,13.365087 165,14.5767109 165,16.578155 L165,17.0170714 L160.309381,17.0170714 L160.309381,17.0875607 C160.267872,17.5605189 160.436218,18.0283354 160.773016,18.3759595 C161.109815,18.7235837 161.583816,18.9187603 162.078448,18.9134893 C162.719815,18.9873681 163.344142,18.6821102 163.658795,18.1407959 L164.920768,18.1408384 Z M160.309351,16.0867821 L163.664518,16.0867821 C163.697935,15.6542216 163.539421,15.2282348 163.228037,14.9137986 C162.916654,14.5993625 162.48136,14.4257196 162.029427,14.4356614 C161.571372,14.4301396 161.130404,14.6023464 160.806556,14.913218 C160.482707,15.2240896 160.303425,15.6472764 160.309381,16.0867821 L160.309351,16.0867821 Z" id="Download-on-the" fill="#FFFFFF" fill-rule="nonzero"></path>
                <path d="M42.0567584,28.4571576 C42.0937695,25.5757214 43.5997949,22.9141509 46.0471961,21.4049316 C44.4962273,19.1831266 41.9915855,17.8249567 39.2888384,17.740137 C36.4453281,17.4407615 33.6886687,19.4468292 32.2396679,19.4468292 C30.7626254,19.4468292 28.5316609,17.7698606 26.1292804,17.8194395 C22.9683742,17.9218726 20.0929884,19.6808053 18.5551432,22.4526952 C15.2802397,28.1399479 17.7230231,36.4982944 20.8601063,41.0954403 C22.4296555,43.3465319 24.2640078,45.8610592 26.6642209,45.7718885 C29.0129735,45.6741745 29.8901871,44.2696095 32.7253323,44.2696095 C35.5341632,44.2696095 36.3571732,45.7718885 38.8060865,45.715193 C41.3264075,45.6741575 42.9143293,43.4540972 44.4288113,41.1816895 C45.5565298,39.5777045 46.4243073,37.8049517 47,35.929097 C44.006624,34.6591903 42.0602521,31.7171587 42.0567584,28.4571576 L42.0567584,28.4571576 Z M37.2607826,15.0547412 C38.696743,13.3649045 39.4041862,11.1929057 39.2328764,9 C37.0390482,9.22587717 35.0125655,10.2537154 33.5572055,11.8787176 C32.1201043,13.4820006 31.3920722,15.5795241 31.5334612,17.7092997 C33.756706,17.7317395 35.86763,16.7533464 37.2607826,15.0547412 L37.2607826,15.0547412 Z" id="Icon" fill="#FFFFFF" fill-rule="nonzero"></path>
                <rect id="Rectangle" stroke-opacity="0" stroke="#FFFFFF" fill-opacity="0" fill="#000000" x="0.5" y="0.5" width="198" height="58" rx="8"></rect>
            </g>
        </g>
    </g>
</svg>