<?xml version="1.0" encoding="UTF-8"?>
<svg width="199px" height="59px" viewBox="0 0 199 59" version="1.1" xmlns="http://www.w3.org/2000/svg" xmlns:xlink="http://www.w3.org/1999/xlink">
    <title>Google Play Badge US</title>
    <g id="Page-1" stroke="none" stroke-width="1" fill="none" fill-rule="evenodd">
        <g id="Artboard" transform="translate(-384.000000, -604.000000)">
            <g id="Google-Play-Badge-US" transform="translate(384.000000, 604.000000)">
                <rect id="Rectangle" stroke-opacity="0" stroke="#FFFFFF" fill-opacity="0" fill="#000000" x="0.5" y="0.5" width="198" height="58" rx="8"></rect>
                <path d="M95.4445869,30.2701749 C91.9669329,30.2870444 89.1594589,33.2037373 89.1703249,36.788491 C89.1812541,40.3732447 92.0064062,43.2717437 95.4840945,43.2661551 C98.9617828,43.2605503 101.778141,40.3529722 101.778179,36.7682009 C101.802613,35.0318883 101.142197,33.3597336 99.9481941,32.1347317 C98.7541911,30.9097299 97.1289018,30.2368372 95.4445869,30.2701749 L95.4445869,30.2701749 Z M95.4445869,40.7128849 C93.8771005,40.8258822 92.4019009,39.9397169 91.72456,38.4782322 C91.0472192,37.0167476 91.3054075,35.2769923 92.3756364,34.0910723 C93.4458652,32.9051523 95.1106091,32.5141075 96.5736393,33.1049702 C98.0366695,33.6958329 99.000623,35.1485096 99.0044516,36.7682009 C99.0527215,37.7813913 98.7019116,38.7717224 98.0316301,39.5144609 C97.3613486,40.2571995 96.4284328,40.6893642 95.4445869,40.7128849 L95.4445869,40.7128849 Z M81.6352788,30.2701749 C78.1556587,30.2786144 75.3407373,33.1916062 75.3461844,36.7783699 C75.3516474,40.3651337 78.1754155,43.2690134 81.6550442,43.2662089 C85.1346728,43.2634004 87.9540288,40.3549691 87.9540385,36.7682009 C87.9784725,35.0318883 87.3180562,33.3597336 86.1240532,32.1347317 C84.9300502,30.9097299 83.3047609,30.2368372 81.620446,30.2701749 L81.6352788,30.2701749 Z M81.6352788,40.7128849 C80.0669741,40.8322545 78.5874733,39.9505079 77.905359,38.4899433 C77.2232447,37.0293786 77.4773906,35.2873566 78.5460778,34.0981902 C79.6147649,32.9090237 81.280416,32.5148187 82.7452947,33.1043733 C84.2101735,33.6939278 85.1760409,35.1472127 85.1803106,36.7682009 C85.2285806,37.7813913 84.8777706,38.7717224 84.2074891,39.5144609 C83.5372076,40.2571995 82.6042919,40.6893642 81.620446,40.7128849 L81.6352788,40.7128849 Z M65.1857377,32.2730959 L65.1857377,35.025201 L71.593494,35.025201 C71.4930219,36.3214483 70.9702872,37.5445919 70.1102171,38.4959113 C68.813867,39.8570179 67.0198737,40.5900463 65.1709049,40.5141218 C61.238787,40.5141218 58.0511757,37.2283633 58.0511757,33.1751748 C58.0511757,29.1219863 61.238787,25.8362278 65.1709049,25.8362278 C66.9772332,25.8058611 68.7215168,26.5151601 70.0212204,27.8085698 L71.9049821,25.8668067 C70.1323469,24.0165636 67.7083741,22.9851296 65.1857377,23.0076753 C61.594666,22.8636164 58.2149199,24.7562892 56.3778228,27.9401465 C54.5407257,31.1240038 54.5407257,35.0887405 56.3778228,38.2725978 C58.2149199,41.4564551 61.594666,43.3491279 65.1857377,43.205069 C67.7544248,43.3247157 70.2477772,42.2933214 72.0236443,40.3765165 C73.5776376,38.6165783 74.4073342,36.3030358 74.3375563,33.924359 C74.3423426,33.3448699 74.2926681,32.7662652 74.1892286,32.1966485 L65.1857377,32.2730959 Z M132.393015,34.4136221 C131.601063,32.0119671 129.453053,30.3635218 126.993887,30.2701632 C125.353922,30.2668698 123.785774,30.9634112 122.661798,32.1944064 C121.537822,33.4254016 120.958278,35.0810429 121.060779,36.7682009 C121.024352,38.4948352 121.67065,40.1625072 122.851172,41.3880284 C124.031694,42.6135496 125.644933,43.2915444 127.320208,43.2662269 C129.427735,43.277937 131.400174,42.1981739 132.571008,40.391806 L130.420257,38.8628587 C129.767238,39.9850176 128.58968,40.6703298 127.320208,40.6670165 C126.005419,40.7186722 124.793655,39.9364852 124.264658,38.6946745 L132.704503,35.1016484 L132.393015,34.4136221 Z M123.790009,36.5847272 C123.729272,35.6293863 124.044132,34.6890542 124.66361,33.975718 C125.283087,33.2623818 126.155035,32.8360874 127.082884,32.792938 C128.060912,32.7265076 128.98306,33.2679552 129.426461,34.1689905 L123.790009,36.5847272 Z M116.93727,42.8839901 L119.710997,42.8839901 L119.710997,23.772149 L116.93727,23.772149 L116.93727,42.8839901 Z M112.398442,31.7226749 L112.294613,31.7226749 C111.449089,30.7482413 110.240359,30.1920151 108.972073,30.1937236 C105.605252,30.3620213 102.959368,33.2248344 102.959368,36.6993983 C102.959368,40.1739622 105.605252,43.0367752 108.972073,43.205069 C110.24447,43.2271221 111.461035,42.6672906 112.294613,41.6761217 L112.383609,41.6761217 L112.383609,42.6087795 C112.383609,45.1009636 111.093159,46.4311478 109.016571,46.4311478 C107.601974,46.3970177 106.347752,45.4847805 105.842358,44.1224374 L103.424617,45.1621215 C104.355642,47.496535 106.568023,49.0148521 109.016571,48.9998904 C112.264947,48.9998904 114.949679,47.0274372 114.949679,42.2265427 L114.949679,30.6524118 L112.398442,30.6524118 L112.398442,31.7226749 Z M109.22423,40.7128849 C107.240922,40.5327134 105.719804,38.8204992 105.719804,36.7682009 C105.719804,34.7159026 107.240922,33.0036884 109.22423,32.8235169 C110.182604,32.874213 111.08053,33.3216023 111.714429,34.0642523 C112.348328,34.8069022 112.664502,35.7819028 112.591268,36.7682009 C112.673048,37.7590343 112.357886,38.7412021 111.719057,39.4863446 C111.080229,40.2314871 110.173394,40.6746824 109.209397,40.7128849 L109.22423,40.7128849 Z M145.386521,23.772149 L138.756273,23.772149 L138.756273,42.8839901 L141.530001,42.8839901 L141.530001,35.6367799 L145.401354,35.6367799 C147.556086,35.7963467 149.616788,34.7018423 150.741344,32.8005414 C151.865899,30.8992404 151.865899,28.5096885 150.741344,26.6083875 C149.616788,24.7070865 147.556086,23.6125822 145.401354,23.772149 L145.386521,23.772149 Z M145.386521,32.9458327 L141.515168,32.9458327 L141.515168,26.4325172 L145.445852,26.4325172 C147.203017,26.4325172 148.627481,27.9008406 148.627481,29.7121092 C148.627481,31.5233778 147.203017,32.9917011 145.445852,32.9917011 L145.386521,32.9458327 Z M162.488704,30.1937276 C160.42504,30.0665787 158.484875,31.21367 157.549392,33.1140169 L160.011632,34.1689905 C160.507648,33.2266516 161.496577,32.6749882 162.533202,32.762359 C163.244475,32.6767297 163.959304,32.8892159 164.517127,33.3520896 C165.07495,33.8149632 165.429002,34.4894195 165.499756,35.2239641 L165.499756,35.4227273 C164.608889,34.9365207 163.61539,34.6844371 162.607366,34.6888326 C159.9523,34.6888326 157.267569,36.2177799 157.267569,38.9851745 C157.320504,40.1773081 157.838987,41.2966821 158.705059,42.0886276 C159.571131,42.8805732 160.711142,43.2777439 161.865728,43.1897795 C163.28853,43.2950981 164.653649,42.5915226 165.425592,41.3550428 L165.514589,41.3550428 L165.514589,42.8839901 L168.184487,42.8839901 L168.184487,35.5297536 C168.184487,32.181359 165.722248,30.239596 162.562868,30.239596 L162.488704,30.1937276 Z M162.14755,40.6670165 C161.242751,40.6670165 159.981966,40.1930428 159.981966,39.0463324 C159.981966,37.5173851 161.55424,37.0128325 162.94852,37.0128325 C163.829649,36.990421 164.700464,37.2121879 165.470091,37.6549903 C165.278297,39.3665169 163.892661,40.6709008 162.221714,40.7128849 L162.14755,40.6670165 Z M177.914784,30.6524118 L174.740571,38.9393061 L174.651575,38.9393061 L171.3587,30.6524118 L168.392146,30.6524118 L173.331458,42.2418322 L170.513232,48.6787003 L173.405622,48.6787003 L181,30.6524118 L177.914784,30.6524118 Z M152.980899,42.8839901 L155.754627,42.8839901 L155.754627,23.772149 L152.980899,23.772149 L152.980899,42.8839901 Z" id="Google-Play" fill="#FFFFFF" fill-rule="nonzero"></path>
                <path d="M63.8159899,14.3148369 C63.8601854,15.2594093 63.511436,16.1806166 62.8511223,16.8634954 C62.1132556,17.6227449 61.0841074,18.0351466 60.0208441,17.9976484 C58.3900124,17.9850055 56.9257396,17.0052214 56.3050643,15.5113208 C55.6843889,14.0174201 56.0282678,12.3005332 57.177701,11.1545003 C57.924551,10.3992384 58.9538021,9.98404853 60.0208441,10.007604 C60.5647176,10.005809 61.1032144,10.114225 61.6032269,10.3261863 C62.0687491,10.5121792 62.4831656,10.804769 62.8125276,11.1799869 L62.1306879,11.8553814 C61.6101056,11.2420167 60.8286118,10.9068852 60.0208441,10.9506076 C59.2088751,10.9466621 58.4303298,11.270576 57.8647331,11.8476579 C57.2991363,12.4247398 56.9953132,13.2051731 57.0233222,14.0089979 C57.0060857,15.2236754 57.7282886,16.3293469 58.8539118,16.8115771 C59.979535,17.2938072 61.2875127,17.0578888 62.1692826,16.2135875 C62.5651478,15.7886453 62.7934657,15.2368157 62.8125276,14.6589058 L60.0208441,14.6589058 L60.0208441,13.7413887 L63.7645303,13.7413887 C63.798845,13.9306446 63.8160663,14.1225529 63.8159899,14.3148369 L63.8159899,14.3148369 Z M69.7081145,11.1290137 L66.2345913,11.1290137 L66.2345913,13.5502393 L69.3993569,13.5502393 L69.3993569,14.4677564 L66.2345913,14.4677564 L66.2345913,16.888982 L69.7081145,16.888982 L69.7081145,17.8319856 L65.2053992,17.8319856 L65.2053992,10.1860101 L69.7081145,10.1860101 L69.7081145,11.1290137 Z M73.927802,17.8319856 L72.9372046,17.8319856 L72.9372046,11.1290137 L70.7759013,11.1290137 L70.7759013,10.1860101 L76.140565,10.1860101 L76.140565,11.1290137 L73.927802,11.1290137 L73.927802,17.8319856 Z M79.9228458,17.8319856 L79.9228458,10.1860101 L80.9134432,10.1860101 L80.9134432,17.8319856 L79.9228458,17.8319856 Z M85.3132393,17.8319856 L84.322642,17.8319856 L84.322642,11.1290137 L82.1613386,11.1290137 L82.1613386,10.1860101 L87.4616778,10.1860101 L87.4616778,11.1290137 L85.3132393,11.1290137 L85.3132393,17.8319856 Z M97.5091654,16.8380088 C95.9434939,18.3802376 93.4142805,18.3802376 91.848609,16.8380088 C90.3308966,15.2466696 90.3308966,12.7585828 91.848609,11.1672436 C92.5973442,10.4201638 93.616138,10 94.6788872,10 C95.7416363,10 96.7604302,10.4201638 97.5091654,11.1672436 C99.0333545,12.7560261 99.0333545,15.2492263 97.5091654,16.8380088 L97.5091654,16.8380088 Z M92.5819083,16.2008442 C93.7414527,17.3446376 95.6163217,17.3446376 96.775866,16.2008442 C97.9146649,14.9573169 97.9146649,13.0606788 96.775866,11.8171515 C95.6163217,10.6733581 93.7414527,10.6733581 92.5819083,11.8171515 C91.4431095,13.0606788 91.4431095,14.9573169 92.5819083,16.2008442 L92.5819083,16.2008442 Z M100.043551,17.8319856 L100.043551,10.1860101 L101.252852,10.1860101 L105.009403,16.1371277 L105.009403,10.1860101 L106,10.1860101 L106,17.8319856 L104.970808,17.8319856 L101.047013,11.6005155 L101.047013,17.8319856 L100.043551,17.8319856 Z" id="GET-IT-ON" stroke="#FFFFFF" stroke-width="0.2" fill="#FFFFFF" fill-rule="nonzero"></path>
                <path d="M16,43.8109721 L16,16.1922446 C16,15.2284648 16.5476161,14.3953702 17.3423011,14 L33,29.996897 L17.3360039,46 C16.5447219,45.6034276 16,44.7722663 16,43.8109721 Z M38,34.7512719 L21,45 L34.40749,31 L38,34.7512719 Z M44.0112823,28.0977971 C44.6123005,28.5360573 45,29.226625 45,30.0033737 C45,30.7684504 44.6240489,31.4497444 44.0384716,31.8888041 L40.2002462,34 L36,29.9987369 L40.197393,26 L44.0112823,28.0977971 Z M21,15 L38,25.2487498 L34.4075015,29 L21,15 Z" id="logo" fill="#FFFFFF" fill-rule="nonzero"></path>
            </g>
        </g>
    </g>
</svg>